<?xml version="1.0" standalone="no"?>
<!DOCTYPE svg PUBLIC "-//W3C//DTD SVG 20010904//EN"
 "http://www.w3.org/TR/2001/REC-SVG-20010904/DTD/svg10.dtd">
<svg version="1.0" xmlns="http://www.w3.org/2000/svg"
 width="856.000000pt" height="856.000000pt" viewBox="0 0 856.000000 856.000000"
 preserveAspectRatio="xMidYMid meet">
<metadata>
Created by potrace 1.14, written by Peter Selinger 2001-2017
</metadata>
<g transform="translate(0.000000,856.000000) scale(0.100000,-0.100000)"
fill="#000000" stroke="none">
<path d="M990 8510 c-19 -5 -48 -10 -65 -13 -128 -20 -269 -77 -400 -163 -223
-145 -374 -341 -459 -596 -25 -73 -35 -111 -40 -158 -2 -14 -7 -50 -11 -80 -9
-70 -10 -6367 0 -6439 4 -30 9 -63 11 -75 2 -12 7 -36 10 -54 3 -19 12 -51 19
-73 8 -21 12 -39 9 -39 -3 0 1 -12 9 -28 7 -15 33 -67 57 -117 24 -49 48 -94
52 -100 4 -5 29 -39 55 -75 27 -36 69 -86 95 -112 63 -62 182 -158 197 -158 6
0 11 -3 11 -7 0 -5 10 -13 23 -19 109 -55 140 -70 194 -90 34 -13 72 -26 85
-28 46 -10 70 -15 86 -20 9 -3 44 -8 77 -12 77 -10 6390 -10 6470 -1 86 10
118 17 131 28 6 5 14 6 17 3 9 -9 134 34 221 78 168 83 308 200 418 348 46 63
110 171 113 190 0 3 3 10 7 15 13 20 49 121 64 180 16 61 19 79 30 170 10 92
10 106 2 111 -4 3 -3 14 2 25 8 14 7 19 -2 19 -8 0 -9 3 -3 8 7 4 10 55 8 137
-2 72 -3 135 -3 140 0 6 1 36 3 68 1 32 -1 63 -4 69 -4 6 -3 22 2 35 6 16 5
23 -4 23 -8 0 -8 3 -1 8 12 8 12 200 0 220 -4 6 -4 12 1 12 4 0 7 42 6 92 -2
51 -3 98 -3 103 0 6 1 28 3 50 2 22 -1 48 -5 58 -5 9 -5 17 -1 17 9 0 10 176
1 186 -4 3 -3 17 2 30 7 17 6 24 -3 24 -8 0 -8 3 -2 8 7 4 10 55 8 137 -2 72
-3 135 -3 140 0 6 1 36 3 68 1 32 -1 63 -4 69 -4 6 -3 22 2 35 6 16 5 23 -4
23 -8 0 -8 3 -1 8 12 8 12 200 0 220 -4 6 -4 12 1 12 9 0 10 176 1 186 -4 3
-3 17 2 30 7 17 6 24 -3 24 -8 0 -8 3 -2 8 7 4 10 55 8 137 -2 72 -3 135 -3
140 0 6 1 36 3 68 1 32 -1 63 -4 69 -4 6 -3 22 2 35 6 16 5 23 -4 23 -8 0 -8
3 -2 8 6 4 11 39 11 77 0 39 -5 73 -11 77 -7 5 -7 8 0 8 7 0 10 46 8 133 -2
72 -3 137 -3 142 0 6 1 36 3 68 1 32 -1 63 -4 69 -4 6 -3 22 2 35 6 16 5 23
-4 23 -8 0 -8 3 -2 8 12 8 13 301 1 320 -4 7 -4 12 1 12 10 0 10 291 -1 308
-4 7 -4 12 1 12 10 0 9 192 -1 208 -4 7 -4 12 1 12 9 0 10 176 1 186 -4 3 -3
17 2 30 7 17 6 24 -3 24 -8 0 -8 3 -2 8 7 4 10 55 8 137 -2 72 -3 135 -3 140
0 6 1 36 3 68 1 32 -1 63 -4 69 -4 6 -3 22 2 35 6 16 5 23 -4 23 -8 0 -8 3 -1
8 12 8 12 200 0 220 -4 6 -4 12 1 12 6 0 7 70 3 195 0 6 1 53 3 105 2 52 -1
101 -6 108 -5 6 -6 12 -1 12 11 0 11 291 0 308 -4 7 -4 12 1 12 12 0 10 154
-2 162 -6 5 -6 8 1 8 17 0 3 211 -20 298 -8 28 -12 52 -9 52 3 0 1 6 -4 13 -6
6 -13 24 -17 39 -3 15 -11 40 -18 55 -6 15 -12 30 -12 33 -8 35 -103 201 -118
208 -5 2 -8 8 -8 13 0 21 -182 211 -240 249 -19 13 -37 27 -40 31 -14 17 -166
96 -255 130 -42 17 -40 16 -135 41 l-85 22 -3245 2 c-1785 1 -3261 -2 -3280
-6z m2532 -2659 c4 -1 7 -384 7 -852 0 -468 2 -853 4 -856 3 -2 48 40 100 94
53 54 185 189 294 300 376 382 919 935 1105 1126 l187 191 846 0 c466 1 852
-2 858 -6 7 -4 10 -106 10 -317 l0 -310 -879 -875 -879 -875 25 -28 c14 -15
28 -30 31 -33 3 -3 36 -43 75 -90 38 -47 73 -90 79 -96 5 -7 17 -20 25 -31 39
-48 106 -129 118 -141 7 -8 25 -30 40 -50 15 -21 29 -39 32 -42 9 -8 311 -374
345 -418 6 -7 15 -19 22 -26 6 -7 35 -42 64 -77 29 -35 55 -66 58 -69 4 -3 24
-27 46 -55 60 -74 69 -86 80 -99 6 -6 40 -47 75 -91 36 -43 75 -91 87 -105 23
-27 58 -69 70 -85 18 -23 148 -180 153 -185 3 -3 35 -41 70 -85 90 -110 102
-125 125 -151 11 -13 31 -38 45 -55 14 -18 42 -54 64 -79 21 -25 48 -56 60
-70 11 -14 48 -59 81 -100 33 -41 66 -81 73 -89 7 -7 50 -59 95 -115 45 -55
86 -106 92 -112 5 -6 24 -28 40 -49 17 -21 35 -43 40 -49 6 -6 42 -49 80 -96
39 -47 76 -91 83 -99 16 -17 10 -45 -20 -98 l-23 -40 -61 46 c-108 81 -127 96
-138 106 -6 6 -31 26 -56 45 -25 18 -52 41 -61 49 -9 9 -31 27 -49 41 -35 26
-98 78 -116 95 -6 6 -35 30 -64 55 -29 25 -65 56 -80 70 -15 14 -56 50 -90 80
-133 118 -257 249 -345 365 -93 123 -127 165 -150 191 -11 12 -30 35 -42 50
-12 16 -34 43 -50 61 -15 17 -46 53 -68 79 -125 148 -433 459 -495 501 -80 54
-142 64 -194 30 -11 -8 -41 -34 -66 -57 -71 -68 -133 -87 -215 -67 -11 3 -33
8 -50 12 -49 11 -206 92 -270 140 -71 52 -117 92 -206 177 -36 35 -117 110
-179 168 -168 156 -297 279 -444 426 -144 145 -203 187 -330 238 -158 64 -306
63 -411 -2 -80 -49 -258 -242 -423 -457 -4 -5 -22 -29 -40 -51 -17 -23 -32
-47 -32 -54 0 -6 -4 -8 -10 -5 -5 3 -10 0 -10 -7 0 -7 -9 -24 -20 -38 -11 -14
-65 -88 -120 -165 -54 -77 -109 -153 -122 -169 -13 -16 -25 -33 -27 -39 -12
-32 -154 -175 -212 -214 -21 -14 -39 -30 -39 -35 0 -5 -4 -7 -8 -4 -5 3 -20
-6 -35 -20 -14 -13 -31 -24 -36 -24 -5 0 -16 -6 -23 -12 -7 -7 -32 -25 -55
-40 -24 -16 -60 -39 -80 -52 -143 -92 -258 -154 -265 -143 -4 7 -4 13 0 14 4
2 6 56 4 120 -2 65 -3 123 -3 128 0 6 0 39 0 75 1 36 1 72 0 80 0 8 0 44 0 80
1 36 1 74 1 85 -1 15 -1 549 -1 800 0 6 0 39 0 75 1 36 1 74 0 85 0 17 0 2054
0 2080 0 6 0 39 0 75 1 36 1 74 1 85 0 11 0 70 0 130 l0 110 898 -2 c493 0
900 -1 904 -2z m149 -2786 c61 -30 115 -72 209 -162 36 -34 90 -85 120 -114
477 -452 947 -919 960 -954 18 -47 12 -76 -24 -110 -19 -17 -51 -40 -71 -49
-44 -21 -186 -117 -218 -147 -30 -28 -88 -57 -108 -54 -10 2 -26 12 -38 24
-12 12 -24 21 -28 21 -5 0 -37 -23 -72 -50 -79 -62 -94 -64 -167 -28 -23 11
-47 30 -53 42 -14 25 -68 64 -102 73 -51 13 -135 7 -169 -13 -34 -19 -74 -83
-85 -134 -33 -158 -36 -182 -32 -275 4 -104 17 -155 67 -260 116 -247 133
-295 131 -379 -3 -136 -85 -122 -251 43 -42 42 -102 110 -134 151 -31 41 -61
80 -66 87 -6 7 -10 15 -10 18 0 3 -11 22 -23 43 -50 79 -75 131 -116 240 -24
62 -44 118 -45 125 -2 7 -6 19 -9 27 -16 44 -74 235 -82 270 -2 8 -13 51 -25
94 -12 44 -24 89 -25 100 -2 12 -6 32 -9 46 -9 47 -17 105 -22 158 -4 62 -25
103 -64 125 -50 30 -68 22 -199 -92 -13 -12 -27 -21 -32 -21 -9 0 -29 57 -22
64 3 3 7 34 8 69 4 72 12 108 60 252 83 252 212 528 294 627 130 159 308 216
452 143z m1956 -1052 c17 -10 97 -81 178 -158 81 -77 170 -162 198 -188 231
-217 617 -616 674 -697 8 -12 26 -33 40 -48 14 -15 39 -46 56 -69 17 -24 35
-43 40 -43 6 0 7 -3 4 -6 -4 -4 4 -20 18 -36 32 -38 126 -192 152 -248 37 -83
50 -142 40 -182 -8 -30 -35 -39 -82 -25 -16 4 -37 10 -45 12 -16 3 -235 85
-285 106 -16 7 -32 13 -35 14 -106 35 -257 150 -350 266 -46 57 -78 87 -102
95 -29 9 -76 -15 -96 -50 -30 -49 -91 -218 -98 -267 -16 -122 -25 -159 -41
-159 -30 0 -100 45 -150 97 -53 54 -94 129 -131 238 -36 107 -101 319 -106
347 -2 15 -7 32 -11 38 -10 17 -17 61 -19 127 -1 80 -13 92 -64 69 -37 -17
-77 -52 -184 -163 -58 -60 -113 -91 -136 -77 -17 11 -19 34 -9 104 10 67 17
129 21 182 2 25 7 54 10 65 3 10 7 31 10 46 5 31 33 133 43 157 3 8 7 20 9 25
7 31 70 168 87 190 4 5 26 38 48 72 46 70 118 140 169 165 46 22 108 22 147 1z
m-3562 -494 c6 -3 23 -9 39 -13 27 -7 287 -257 394 -380 41 -47 126 -170 128
-184 0 -4 6 -20 13 -37 8 -16 17 -39 22 -50 13 -29 19 -74 12 -91 -7 -19 -35
-18 -59 4 -27 26 -126 72 -160 76 -27 2 -103 -20 -114 -34 -12 -14 -64 -50
-73 -50 -9 0 -6 34 8 75 5 13 -4 8 -24 -15 -71 -79 -83 -90 -96 -90 -17 0 -42
24 -50 49 -13 42 -84 60 -120 32 -19 -16 -160 -59 -206 -64 -57 -6 -65 -1 -74
43 -26 137 -26 249 0 350 9 36 18 70 20 75 23 96 97 209 175 265 56 41 133 59
165 39z"/>
</g>
</svg>
