<svg width="131" height="160" viewBox="0 0 131 160" fill="none" xmlns="http://www.w3.org/2000/svg">
<path d="M4.70871 126.091L9.51489 137.152H7.44708L3.37644 127.785L2.06781 129.45V137.152H0V119.97H2.06929V126.103C3.67628 124.058 5.28326 122.014 6.89025 119.97H9.51637C7.91382 122.011 6.31126 124.051 4.70871 126.091Z" fill="white"/>
<path d="M20.0341 137.154H10.5237V119.972H20.0341C19.885 120.661 19.7343 121.351 19.5851 122.039H12.5915V125.722H17.3061C17.1569 126.411 17.0063 127.101 16.8571 127.791H12.5915V135.086H19.5851C19.7343 135.774 19.885 136.464 20.0341 137.154Z" fill="white"/>
<path d="M30.5357 125.447C30.4914 127.645 28.9878 129.637 26.7974 130.401L23.0901 131.495V137.173H21.0208V119.992H25.5567L25.6202 120.001C28.4324 120.359 30.5904 122.751 30.5357 125.447ZM28.4679 125.404C28.5004 123.77 27.1666 122.313 25.4208 122.06H23.0901V129.339L26.1386 128.439C27.5064 127.953 28.4413 126.736 28.4679 125.404Z" fill="white"/>
<path d="M38.8365 137.17H36.7687L36.6594 136.665L36.6328 136.539C36.3787 135.461 35.5339 134.532 34.3818 134.121L32.1929 133.474L31.3909 137.168H29.3216C30.5652 131.441 31.8089 125.714 33.054 119.986H35.1292C36.364 125.716 37.6017 131.443 38.8365 137.17ZM35.7525 132.466C35.1971 129.894 34.6418 127.321 34.0879 124.75C33.602 126.984 33.1175 129.218 32.633 131.451L35.0406 132.161C35.2872 132.248 35.525 132.35 35.7525 132.466Z" fill="white"/>
<path d="M50.5609 119.982V137.162H48.4916V124.753L47.2849 127.538L46.3884 129.606L46.2377 129.956L45.2023 132.342L44.1684 129.956L44.0178 129.606L43.1198 127.538L41.913 124.753V137.162H39.8438V119.982H41.913L45.1876 127.538L45.2009 127.571L45.2156 127.538L48.4902 119.982H50.5609Z" fill="white"/>
<path d="M60.3787 137.375C55.5134 137.375 51.5535 133.417 51.5535 128.55C51.5535 123.685 55.5119 119.725 60.3787 119.725C65.2454 119.725 69.2038 123.683 69.2038 128.55C69.2038 133.417 65.2454 137.375 60.3787 137.375ZM60.3787 121.794C56.6536 121.794 53.6228 124.825 53.6228 128.55C53.6228 132.277 56.6536 135.307 60.3787 135.307C64.1037 135.307 67.136 132.277 67.136 128.55C67.136 124.825 64.1052 121.794 60.3787 121.794Z" fill="white"/>
<path d="M79.7187 119.972C79.5695 120.661 79.4189 121.351 79.2697 122.041H72.2731V137.154H70.2038V119.972H79.7187Z" fill="white"/>
<path d="M90.2423 125.447C90.198 127.645 88.6944 129.637 86.504 130.401L82.7967 131.495V137.173H80.7274V119.992H85.2633L85.3268 120.001C88.1376 120.359 90.297 122.751 90.2423 125.447ZM88.1745 125.404C88.207 123.77 86.8732 122.313 85.1274 122.06H82.7967V129.339L85.8453 128.439C87.2115 127.953 88.1479 126.736 88.1745 125.404Z" fill="white"/>
<path d="M98.5431 137.17H96.4753L96.366 136.665L96.3394 136.539C96.0853 135.461 95.2405 134.532 94.0884 134.121L91.8995 133.474L91.0975 137.168H89.0282C90.2718 131.441 91.5155 125.714 92.7606 119.986H94.8358C96.0706 125.716 97.3068 131.443 98.5431 137.17ZM95.4591 132.466C94.9037 129.894 94.3484 127.321 93.7945 124.75C93.3086 126.984 92.8241 129.218 92.3397 131.451L94.7472 132.161C94.9938 132.248 95.2316 132.35 95.4591 132.466Z" fill="white"/>
<path d="M109.067 119.989V137.17H106.999V131.441H101.62V137.17H99.5504V119.989H101.62V129.374H106.999V119.989H109.067Z" fill="white"/>
<path d="M119.599 119.972V137.152H117.53V124.742L112.151 137.152H110.083V119.972H112.151V132.381L117.53 119.972H119.599Z" fill="white"/>
<path d="M130.113 119.992V120.004C129.963 120.689 129.814 121.375 129.667 122.062H126.389V137.174H124.321V122.062H120.598V119.992H130.113Z" fill="white"/>
<path d="M49.8993 142.819L46.1654 151.41L45.1315 153.789L42.4315 160H40.3622L44.0961 151.41L40.3622 142.819H42.4315L45.1315 149.03L47.83 142.819H49.8993Z" fill="white"/>
<path d="M60.4008 148.273C60.3565 150.47 58.8529 152.463 56.661 153.226L52.9537 154.321V159.999H50.8844V142.818H55.4203L55.4838 142.827C58.2975 143.184 60.4554 145.577 60.4008 148.273ZM58.3344 148.23C58.3669 146.596 57.0332 145.138 55.2874 144.886H52.9566V152.164L56.0052 151.265C57.3714 150.779 58.3064 149.562 58.3344 148.23Z" fill="white"/>
<path d="M68.7031 159.996H66.6353L66.526 159.49L66.4994 159.365C66.2453 158.287 65.4005 157.358 64.2484 156.947L62.0595 156.3L61.2575 159.994H59.1882C60.4318 154.266 61.6755 148.54 62.9206 142.812H64.9958C66.2305 148.541 67.4668 154.269 68.7031 159.996ZM65.6191 155.291C65.0637 152.72 64.5084 150.147 63.9545 147.575C63.4685 149.81 62.9841 152.043 62.4996 154.277L64.9072 154.987C65.1523 155.074 65.3901 155.176 65.6191 155.291Z" fill="white"/>
<path d="M79.2238 142.818V159.999H77.1545V144.887H75.0616L71.7797 159.999H69.7104L73.4369 142.845L73.4428 142.818H79.2238Z" fill="white"/>
<path d="M89.749 159.996H87.6812L87.5719 159.49L87.5453 159.365C87.2912 158.287 86.4464 157.358 85.2943 156.947L83.1054 156.3L82.3034 159.994H80.2341C81.4777 154.266 82.7214 148.54 83.9665 142.812H86.0417C87.2765 148.541 88.5127 154.269 89.749 159.996ZM86.665 155.291C86.1096 152.72 85.5543 150.147 85.0004 147.575C84.5144 149.81 84.03 152.043 83.5455 154.277L85.9531 154.987C86.1997 155.074 86.4375 155.176 86.665 155.291Z" fill="white"/>
<rect x="22.0408" y="23.6735" width="87.3469" height="80" fill="white"/>
<path d="M26.0795 155.466L23.3854 152.772C22.8109 152.197 22.8109 151.263 23.3854 150.689L26.0795 147.995C26.6541 147.42 27.5875 147.42 28.1621 147.995L30.8562 150.689C31.4307 151.263 31.4307 152.197 30.8562 152.772L28.1621 155.466C27.5875 156.04 26.6555 156.04 26.0795 155.466Z" fill="#2155A2"/>
<path d="M104.244 155.466L101.55 152.772C100.976 152.197 100.976 151.263 101.55 150.689L104.244 147.995C104.819 147.42 105.752 147.42 106.327 147.995L109.021 150.689C109.596 151.263 109.596 152.197 109.021 152.772L106.327 155.466C105.751 156.04 104.819 156.04 104.244 155.466Z" fill="#2155A2"/>
<path d="M103.84 0H26.2923C18.4538 0 12.0997 6.35409 12.0997 14.1926V91.7415C12.0997 99.58 18.4538 105.934 26.2923 105.934H103.841C111.68 105.934 118.034 99.58 118.034 91.7415V14.1926C118.034 6.35409 111.678 0 103.84 0ZM45.3604 97.1075C44.9188 97.4324 43.7032 95.7087 42.2085 95.9731C41.1908 96.1518 40.5543 97.1636 40.3179 96.9819C40.1023 96.815 40.5675 95.9126 40.445 95.8476C40.2751 95.759 39.4701 97.4752 38.8055 97.36C38.3624 97.2832 38.4082 96.4679 37.7967 96.2257C37.3359 96.0425 36.8883 96.3394 36.2842 96.6038C35.6698 96.8726 34.7614 97.1665 33.5104 97.2345C33.2962 96.6127 33.0614 95.6984 33.0392 94.5774C33.0126 93.2776 33.2815 92.2289 33.5104 91.5613C33.6699 90.8184 34.1278 89.2409 35.528 88.1597C35.9416 87.8407 36.5205 87.405 37.293 87.4035C38.2398 87.4006 38.9295 88.0504 39.5617 88.6649C43.6383 92.6144 44.3915 93.731 44.9823 95.0928C45.2142 95.6275 45.7031 96.8549 45.3604 97.1075ZM70.0664 87.4006C69.8832 87.5571 69.0472 88.2794 68.5539 88.0312C68.3486 87.9279 68.3442 87.7285 68.0074 87.5276C67.777 87.3902 66.7283 88.4167 66.4108 88.6191C65.882 88.9573 65.1568 88.6368 65.0239 88.5777C64.3799 88.2927 64.3474 87.8909 63.8482 87.4847C63.0329 86.8245 61.6371 86.6886 60.7804 87.2322C60.1143 87.6546 59.9356 88.3857 59.6889 89.4595C59.4615 90.4432 59.0627 92.1772 59.6889 94.2908C59.8455 94.8196 59.8115 94.5094 61.4953 98.3245C61.6135 98.5904 62.1718 99.8975 61.7892 101.014C61.7272 101.194 61.6474 101.349 61.4953 101.435C60.9399 101.742 59.9149 100.853 59.5205 100.51C56.2593 97.6791 54.7719 94.0397 54.7719 94.0397C53.6391 91.2644 51.7308 85.1274 51.7042 82.9045C51.7012 82.7022 51.7071 81.9371 51.2005 81.4334C51.1562 81.3891 50.6762 80.9283 50.1076 81.0125C49.8225 81.0553 49.7058 81.2075 48.889 81.9371C48.1933 82.5589 48.0427 82.6594 47.9231 82.6091C47.7886 82.553 47.7281 82.3182 47.7547 81.6003C47.8034 80.2843 48.0072 79.5827 48.0072 79.5827C48.5316 77.7616 49.081 76.2669 49.5197 75.1709C51.5683 70.0487 53.0424 69.0044 53.6804 68.616C54.1841 68.3087 54.9507 67.842 55.9905 67.7755C58.1572 67.6367 59.6003 69.3589 61.999 71.6409C69.8182 79.0806 71.0353 80.3405 73.4709 82.8602C73.6998 83.0966 74.168 83.5825 74.1429 84.2043C74.0971 85.3283 72.4724 85.3372 70.0664 87.4006ZM99.7306 102.528C99.4751 102.785 98.9404 102.807 95.6127 101.478C93.8979 100.793 93.0294 100.443 92.545 100.091C90.8656 98.871 89.8982 97.654 89.8982 97.654C89.43 97.0646 88.9736 96.366 88.3429 96.3941C88.018 96.4074 87.7743 96.6097 87.628 96.7294C87.2396 97.0513 87.1894 97.3792 86.7876 98.4515C86.3667 99.577 86.3283 99.4618 86.2411 99.8798C86.1776 100.189 86.1746 100.358 86.0314 101.435C85.9354 102.154 85.9132 102.255 85.8216 102.317C85.445 102.575 84.4126 101.84 83.7199 101.141C82.8307 100.243 82.4098 99.3097 80.9047 94.1667C80.5561 92.9748 80.4616 92.6233 80.4424 92.065C80.4187 91.3501 80.5399 90.9542 80.3168 90.8051C79.89 90.5185 78.7586 91.5022 78.5946 91.6455C77.8015 92.3352 77.8 92.7089 76.9566 93.3677C76.6406 93.6143 75.9345 94.1653 75.6126 93.9555C75.3792 93.8034 75.4471 93.3204 75.487 93.0309C75.97 89.5023 75.7174 90.5422 75.908 89.5851C76.8976 84.6149 79.0141 82.5294 79.5636 82.0228C80.1603 81.4718 80.8279 81.045 81.5812 81.0982C82.4127 81.1572 82.9902 81.7835 83.1778 81.9799C85.3254 84.2412 97.9804 95.1105 99.7749 101.14C99.9094 101.599 100.039 102.218 99.7306 102.528ZM105.801 100.716C101.491 97.5284 94.7886 91.8552 93.028 89.4182C93.028 89.4182 88.8037 83.5707 83.3225 78.4514C82.7864 77.9507 81.6668 76.9404 80.5487 77.1915C79.5089 77.4248 79.2977 78.5636 78.0275 78.9565C77.4765 79.1264 76.8193 79.1278 75.6318 78.7039C73.0115 77.7705 71.1446 75.9611 70.4637 75.3009C67.8819 72.7974 65.145 70.4519 62.6474 67.8642C61.2752 66.4418 60.4865 65.5733 58.9918 64.8392C58.1513 64.4272 55.9506 63.346 53.6982 64.083C53.1827 64.2514 52.4087 64.5985 50.1681 67.1079C48.3041 69.1964 47.0664 70.9437 46.387 71.8979C43.9469 75.3245 42.7284 77.0379 42.1007 77.8222C41.0712 79.1101 37.2576 81.5944 33.5089 83.7715V33.3243H56.1116V54.865L77.2491 33.3243H98.6539V41.2455L76.7262 63.0772C86.6665 75.134 96.6082 87.1893 106.549 99.2462C106.371 99.6745 106.129 100.178 105.801 100.716Z" fill="#2155A2"/>
</svg>
