<svg width="66" height="66" viewBox="0 0 66 66" fill="none" xmlns="http://www.w3.org/2000/svg">
    <circle cx="33" cy="33" r="33" fill="#CDD8E9"/>
    <path d="M25.2378 52.4603C23.4414 52.2929 21.6706 51.9125 20.0039 51.1691C19.0183 50.7294 18.1261 50.1549 17.4721 49.2587C16.8904 48.4613 16.6447 47.5605 16.6764 46.5843C16.8798 40.2998 20.1501 36.1936 25.6771 33.7026C26.1668 33.482 26.6845 33.1868 27.1916 33.1807C27.6686 33.1754 28.1516 33.501 28.6271 33.6928C31.8747 35.0021 35.0666 34.8599 38.1959 33.304C38.5086 33.148 38.7731 33.1084 39.1076 33.2195C42.6936 34.4102 45.5908 36.4964 47.5274 39.8205C48.7503 41.9197 49.3049 44.2113 49.3252 46.6361C49.338 48.138 48.6441 49.2739 47.4573 50.1306C46.1371 51.0831 44.6263 51.5762 43.0718 51.9429C40.8422 52.4694 38.5726 52.703 36.2887 52.7798C35.1103 52.8194 33.9295 52.7867 32.7503 52.7867C32.7488 52.8483 27.7341 52.6931 25.2378 52.4603Z" fill="#7387A4"/>
    <path d="M31.8912 32.1904C28.5766 32.2307 24.7472 29.179 23.8332 24.8818C22.8529 20.2734 25.711 15.5235 30.2689 14.3032C34.0508 13.2905 37.3858 14.1411 40.0796 17.0665C43.3228 20.5877 43.0522 26.3396 39.5484 29.5975C37.694 31.3223 35.5028 32.1698 31.8912 32.1904Z" fill="#7387A4"/>
</svg>
