<svg width="221" height="194" viewBox="0 0 221 194" fill="none" xmlns="http://www.w3.org/2000/svg">
    <path d="M220.999 144.616C219.62 147.236 217.333 147.908 214.549 147.897C202.104 147.843 189.665 147.876 177.22 147.876C176.372 147.876 175.523 147.876 174.804 147.876C173.815 150.891 172.841 153.657 172.041 156.471C171.852 157.127 172.112 158.001 172.387 158.689C175.977 167.784 179.604 176.868 183.216 185.951C183.481 186.618 183.735 187.291 183.935 187.979C184.827 191.065 182.837 193.934 179.631 193.956C170.425 194.015 161.218 194.01 152.012 193.956C149.076 193.939 147.314 191.944 147.255 188.679C147.184 185.073 147.238 181.466 147.238 177.855C147.238 177.074 147.238 176.293 147.238 175.392C144.157 175.392 141.254 175.392 138.124 175.392C138.124 179.655 138.129 183.966 138.124 188.272C138.113 192.291 136.48 193.967 132.539 193.972C123.906 193.983 115.278 193.983 106.644 193.972C102.271 193.967 100.265 191.016 101.892 186.873C105.552 177.573 109.315 168.315 112.899 158.993C113.331 157.865 113.153 156.385 112.915 155.132C112.591 153.451 111.688 151.867 111.483 150.186C111.239 148.19 110.315 147.827 108.504 147.832C74.77 147.881 41.0415 147.87 7.30765 147.865C6.51837 147.865 5.72367 147.897 4.93439 147.832C1.59884 147.545 0.00405455 145.869 0.00405455 142.529C-0.00135152 96.7957 -0.00135152 51.0519 0.00405455 5.30823C0.00405455 1.77238 1.78265 0.00445526 5.32903 0.00445526C60.0655 -0.000967829 114.802 -0.0172371 169.533 0.0803784C171.133 0.0858015 173.133 0.915534 174.274 2.04353C189.265 16.8974 204.143 31.8759 219.025 46.8382C219.771 47.5866 220.345 48.5085 220.999 49.3545C220.999 81.1121 220.999 112.864 220.999 144.616ZM110.769 138.488C114.256 119.285 130.371 110.565 142.757 110.814C149.741 110.955 156.061 112.908 161.651 117.045C168.852 122.376 173.031 129.638 174.555 138.429C186.978 138.429 199.245 138.429 211.533 138.429C211.533 110.722 211.533 83.1403 211.533 55.4175C210.576 55.4175 209.797 55.4175 209.013 55.4175C196.498 55.4175 183.983 55.423 171.468 55.4175C167.36 55.4175 165.749 53.7852 165.749 49.6365C165.743 37.0116 165.749 24.3866 165.749 11.7563C165.749 10.9916 165.749 10.2215 165.749 9.45689C113.483 9.45689 61.5143 9.45689 9.46467 9.45689C9.46467 52.5379 9.46467 95.4779 9.46467 138.483C43.2904 138.488 76.9378 138.488 110.769 138.488ZM119.813 143.174C119.813 155.783 130.144 166.222 142.665 166.265C155.169 166.309 165.808 155.625 165.738 143.093C165.673 130.516 155.261 120.175 142.692 120.196C130.004 120.213 119.813 130.446 119.813 143.174ZM175.236 16.816C175.236 26.3878 175.236 36.1764 175.236 45.8621C185.124 45.8621 194.812 45.8621 204.197 45.8621C194.547 36.1819 184.87 26.48 175.236 16.816ZM172.625 184.563C170.149 178.326 167.803 172.426 165.484 166.596C162.683 168.408 160.051 170.1 157.445 171.824C157.121 172.041 156.699 172.442 156.693 172.762C156.639 176.689 156.661 180.615 156.661 184.563C162.067 184.563 167.149 184.563 172.625 184.563ZM128.825 184.557C128.825 180.642 128.874 176.976 128.777 173.315C128.76 172.751 128.22 172.025 127.717 171.678C125.198 169.937 122.614 168.304 119.965 166.575C117.656 172.404 115.294 178.364 112.839 184.557C118.343 184.557 123.414 184.557 128.825 184.557Z" fill="#E4E4E4"/>
    <path d="M73.5372 37.0277C60.5194 37.0277 47.4962 37.0331 34.4784 37.0169C33.4783 37.0169 32.4619 36.9681 31.478 36.8054C29.0885 36.4095 27.5262 34.4463 27.6397 32.1036C27.7478 29.8747 29.4616 28.0417 31.7213 27.7597C32.2187 27.7 32.7268 27.7163 33.2296 27.7163C60.2059 27.7163 87.1767 27.7109 114.153 27.7163C117.851 27.7163 119.889 29.6306 119.624 32.7814C119.446 34.8476 118.094 36.4149 116.034 36.7782C114.98 36.9626 113.894 37.0169 112.818 37.0169C99.7188 37.0331 86.6307 37.0277 73.5372 37.0277Z" fill="#E4E4E4"/>
    <path d="M73.7752 55.423C87.3714 55.423 100.962 55.4338 114.559 55.4121C116.607 55.4067 118.494 56.0412 119.089 57.9989C119.516 59.4035 119.262 61.2202 118.732 62.6302C118.418 63.4708 117.051 64.0945 116.029 64.447C115.045 64.7886 113.904 64.7236 112.829 64.7236C86.7173 64.7344 60.606 64.7344 34.4947 64.7236C33.4946 64.7236 32.4782 64.6748 31.4943 64.5121C29.0994 64.1216 27.5317 62.1693 27.6344 59.8265C27.7371 57.5109 29.5265 55.6616 31.9106 55.4447C32.5539 55.385 33.2026 55.4176 33.8514 55.4176C47.1611 55.423 60.4654 55.423 73.7752 55.423Z" fill="#E4E4E4"/>
    <path d="M73.7427 83.1349C87.3389 83.1349 100.93 83.1458 114.526 83.1241C116.57 83.1186 118.467 83.726 119.067 85.6838C119.5 87.0883 119.262 88.8996 118.743 90.3151C118.435 91.1611 117.072 91.7793 116.056 92.1589C115.153 92.4952 114.077 92.4355 113.072 92.4409C86.8145 92.4518 60.5627 92.4518 34.3054 92.4409C33.3756 92.4409 32.4349 92.3867 31.5159 92.2348C29.1102 91.8444 27.537 89.9138 27.6235 87.5764C27.71 85.2608 29.4886 83.3952 31.8673 83.1674C32.5106 83.1078 33.1593 83.1403 33.8081 83.1403C47.1286 83.1349 60.4383 83.1349 73.7427 83.1349Z" fill="#E4E4E4"/>
    <path d="M55.3458 110.847C62.8927 110.847 70.4396 110.825 77.9864 110.858C80.4516 110.869 82.2572 112.289 82.7546 114.442C83.2195 116.433 82.2843 118.645 80.3597 119.497C79.3488 119.947 78.1486 120.126 77.0296 120.126C62.5089 120.164 47.9936 120.18 33.4729 120.104C32.116 120.099 30.5806 119.714 29.4454 119.003C27.7046 117.913 27.2018 116.031 27.8776 114.047C28.6128 111.904 30.2184 110.842 32.489 110.842C40.1115 110.847 47.7287 110.847 55.3458 110.847Z" fill="#E4E4E4"/>
</svg>
