<svg width="169" height="46" viewBox="0 0 169 46" fill="none" xmlns="http://www.w3.org/2000/svg">
<g clip-path="url(#clip0_112_2698)">
<path d="M44.6866 32.089C49.769 20.4193 44.3099 6.89025 32.4935 1.87099C20.677 -3.14827 6.97782 2.24296 1.89543 13.9126C-3.18695 25.5823 2.27208 39.1114 14.0885 44.1307C25.905 49.1499 39.6042 43.7587 44.6866 32.089Z" fill="#299400"/>
<path fill-rule="evenodd" clip-rule="evenodd" d="M23.2915 7.18652C31.2988 7.18652 36.7296 13.2712 36.7296 19.8382C36.7296 22.4756 36.147 24.7723 34.7893 27.6487C26.8313 27.6487 25.3751 32.8704 25.039 36.3708L24.797 38.8135H21.7904L21.5484 36.3708C21.2079 32.8704 19.7516 27.6487 11.7981 27.6487C10.4404 24.7723 9.85786 22.4712 9.85786 19.8382C9.8489 13.2712 15.2842 7.18652 23.2915 7.18652Z" fill="white"/>
<path fill-rule="evenodd" clip-rule="evenodd" d="M67.5399 7.18652C59.9718 7.18652 54.2945 11.7401 54.3438 19.6435H61.3788C61.2802 16.4795 63.319 13.4128 67.5399 13.4128C70.7438 13.4128 72.7825 15.5192 72.7825 18.2053C72.7825 20.9843 70.5511 22.5199 66.9574 24.2413C62.2525 26.4937 59.4386 27.5469 54.3438 29.224V38.3267H79.5755V32.1049H63.8522C66.2853 31.1048 68.6512 30.0029 70.7931 28.9895C76.4703 26.3078 79.8175 23.2854 79.8175 17.8734C79.8175 11.3551 74.8661 7.18652 67.5399 7.18652ZM90.7329 13.8951H105.291V7.66887H83.9399V38.3355H90.7329V13.8951ZM115.481 7.66887H108.688V38.3355H115.431L128.094 18.7363V38.3355H134.887V7.66887H128.094L115.481 27.2681V7.66887ZM169 26.8344H161.965C160.899 30.2374 157.645 32.5872 153.814 32.5872C148.236 32.5872 144.597 27.8434 144.597 23.0022C144.597 18.161 148.142 13.4172 154.012 13.4172C157.892 13.4172 160.903 15.767 161.97 19.17H169.004C167.987 12.3153 162.503 7.19095 153.819 7.19095C144.212 7.19095 137.809 13.8509 137.809 23.0022C137.809 32.1535 144.212 38.8135 153.819 38.8135C162.498 38.8135 167.983 33.782 169 26.8344Z" fill="#262626"/>
</g>
<defs>
<clipPath id="clip0_112_2698">
<rect width="169" height="46" fill="white"/>
</clipPath>
</defs>
</svg>
