<svg width="142" height="40" viewBox="0 0 142 40" fill="none" xmlns="http://www.w3.org/2000/svg">
<g clip-path="url(#clip0_112_2693)">
<path fill-rule="evenodd" clip-rule="evenodd" d="M135.755 34.8304C138.548 34.8304 140.527 34.3395 142 33.2833V28.4906C140.486 29.5096 138.663 30.1518 136.104 30.1518C131.798 30.1518 130.011 26.9063 130.011 21.7739C130.011 16.3787 132.183 13.6218 136.142 13.6218C138.469 13.6218 140.759 14.4151 141.962 15.1689V10.1878C140.682 9.50848 138.469 9.01758 135.444 9.01758C127.722 9.01758 123.728 14.4128 123.728 21.9601C123.766 30.2262 127.684 34.8304 135.755 34.8304ZM98.0043 32.6411V27.8485C96.1409 29.0932 92.9596 30.189 90.0509 30.189C85.6282 30.189 83.9586 28.1509 83.6883 24.0004H98.277V20.9061C98.277 12.2654 94.3589 9.01991 88.3455 9.01991C80.9734 9.01991 77.4811 14.4919 77.4811 22.0019C77.4811 30.6427 81.8656 34.8327 89.5462 34.8327C93.3878 34.8304 96.2199 33.8114 98.0043 32.6411ZM42.6395 9.47125V19.2822H34.5689V9.47125H28.5172V34.3395H34.5689V23.9632H42.6395V34.3418H48.6912V9.47125H42.6395ZM75.967 29.6609H73.2903V9.47125H55.6758V11.5837C55.6758 17.6583 55.2883 25.508 53.1546 29.6585H51.2147V39.9976H56.8024V34.3395H70.3434V40H75.9311V29.6609H75.967ZM117.286 34.3395L108.362 22.1136V34.3395H102.31V9.47125H108.362V20.9434L116.896 9.47125H122.989L114.454 20.9434L124.153 34.3395H117.286ZM88.1876 13.6218C91.1752 13.6218 92.1057 16.0367 92.1057 19.1682V19.6591H83.6859C83.8437 15.6994 85.3172 13.6218 88.1876 13.6218ZM67.2362 29.6609H58.7016C60.3688 25.9245 60.8353 19.1333 60.8353 14.8316V14.0755H67.2362V29.6609Z" fill="black"/>
<path fill-rule="evenodd" clip-rule="evenodd" d="M23.4725 34.3396H17.3036V4.64142H14.5504C9.50574 4.64142 6.86738 7.09358 6.86738 10.7555C6.86738 14.9061 8.69007 16.8301 12.455 19.2846L15.5598 21.3226L6.63536 34.3396H0L8.03228 22.7162C3.41336 19.5103 0.815666 16.3764 0.815666 11.0952C0.815666 4.4902 5.54701 0 14.5098 0H23.4342V34.3396H23.4725Z" fill="#FC3F1D"/>
</g>
<defs>
<clipPath id="clip0_112_2693">
<rect width="142" height="40" fill="white"/>
</clipPath>
</defs>
</svg>
